# xmcd
#
# Track frame offsets:
#	150
#	8732
#	17870
#	30177
#	41890
#	50632
#	63935
#	83185
#	98477
#	104317
#	116272
#	132480
#	143680
#
# Disc length: 2439 seconds
#
# Revision: 1
# Processed by: cddbd v1.5.1PL0 Copyright (c) Steve Scherf et al.
# Submitted via: CDex 1.50Beta5
#
DISCID=9f09850d
DTITLE=SOBUT - MAXIMUM CULTURE
DYEAR=2001
DGENRE=Rock
TTITLE0=BOOOOM
TTITLE1=90’s CULTURE BOOK
TTITLE2=SOBUT×WE GO!(ENGLISH VERSION)
TTITLE3=Level-G
TTITLE4=BASTARDS BOP
TTITLE5=Punk’n’Roll,ya
TTITLE6=swingin’ mosh
TTITLE7=ROOKIE
TTITLE8=SLOGAN
TTITLE9=HELIPORT-2H
TTITLE10=HAP’P’EACE
TTITLE11=BUZZ 4 BUZZ
TTITLE12=FRANTIC SOULZ
EXTD=
EXTT0=
EXTT1=
EXTT2=
EXTT3=
EXTT4=
EXTT5=
EXTT6=
EXTT7=
EXTT8=
EXTT9=
EXTT10=
EXTT11=
EXTT12=
PLAYORDER=
